<?xml version="1.0" encoding="UTF-8" standalone="no"?>
<!-- Created with Inkscape (http://www.inkscape.org/) -->

<svg
   xmlns:dc="http://purl.org/dc/elements/1.1/"
   xmlns:cc="http://creativecommons.org/ns#"
   xmlns:rdf="http://www.w3.org/1999/02/22-rdf-syntax-ns#"
   xmlns:svg="http://www.w3.org/2000/svg"
   xmlns="http://www.w3.org/2000/svg"
   xmlns:sodipodi="http://sodipodi.sourceforge.net/DTD/sodipodi-0.dtd"
   xmlns:inkscape="http://www.inkscape.org/namespaces/inkscape"
   width="556.37146"
   height="410.12317"
   id="svg2"
   version="1.1"
   inkscape:version="0.48.2 r9819"
   sodipodi:docname="ERROR.svg">
  <defs
     id="defs4" />
  <sodipodi:namedview
     id="base"
     pagecolor="#ffffff"
     bordercolor="#666666"
     borderopacity="1.0"
     inkscape:pageopacity="0.0"
     inkscape:pageshadow="2"
     inkscape:zoom="0.175"
     inkscape:cx="-880.06703"
     inkscape:cy="367.89469"
     inkscape:document-units="px"
     inkscape:current-layer="layer1"
     showgrid="false"
     inkscape:window-width="1059"
     inkscape:window-height="720"
     inkscape:window-x="87"
     inkscape:window-y="25"
     inkscape:window-maximized="0"
     fit-margin-top="0"
     fit-margin-left="0"
     fit-margin-right="0"
     fit-margin-bottom="0" />
  <metadata
     id="metadata7">
    <rdf:RDF>
      <cc:Work
         rdf:about="">
        <dc:format>image/svg+xml</dc:format>
        <dc:type
           rdf:resource="http://purl.org/dc/dcmitype/StillImage" />
      </cc:Work>
    </rdf:RDF>
  </metadata>
  <g
     inkscape:label="Layer 1"
     inkscape:groupmode="layer"
     id="layer1"
     transform="translate(-80.71875,-218.68935)">
    <rect
       style="fill:none;stroke:none"
       id="rect3102"
       width="555.58392"
       height="410.12192"
       x="81.506317"
       y="218.68935" />
    <path
       style="fill:#338000;stroke:none"
       d="m 171.71486,467.12607 376.66952,0 75.47906,161.42859 -542.142843,0 z"
       id="rect4645"
       inkscape:connector-curvature="0"
       sodipodi:nodetypes="ccccc" />
    <path
       style="fill:none;stroke:#000000;stroke-width:1px;stroke-linecap:butt;stroke-linejoin:miter;stroke-opacity:1"
       d="m 82.194877,628.27971 507.096583,0"
       id="path3057"
       inkscape:connector-curvature="0" />
    <path
       style="fill:#225500;stroke:#000000;stroke-width:1px;stroke-linecap:butt;stroke-linejoin:miter;stroke-opacity:1"
       d="m 132.00632,627.98323 32.14285,-28.57142 -20.71428,5 12.14285,-10.71429 -17.85714,5 5.71429,-14.28571 -15.71429,11.42857 -4.28571,-14.28572 -0.71429,12.85715 -13.57143,-8.57144 4.28572,12.85714 -17.857153,-7.14286 12.142863,12.14286 -16.428573,-6.42857 10.000003,11.42857 -19.285713,0 21.428573,19.28571 z"
       id="path4409"
       inkscape:connector-curvature="0" />
    <path
       style="fill:#225500;stroke:#000000;stroke-width:1px;stroke-linecap:butt;stroke-linejoin:miter;stroke-opacity:1"
       d="m 151.93194,627.88169 -32.14286,-28.57142 20.71429,5 -12.14285,-10.71429 17.85714,5 -5.71429,-14.28571 15.71429,11.42857 4.28571,-14.28572 0.71429,12.85715 13.57143,-8.57143 -4.28572,12.85714 17.85715,-7.14286 -12.14286,12.14286 16.42857,-6.42857 -10,11.42857 19.28571,0 -21.42857,19.28571 z"
       id="path4409-6"
       inkscape:connector-curvature="0" />
    <path
       style="fill:#225500;stroke:#000000;stroke-width:1px;stroke-linecap:butt;stroke-linejoin:miter;stroke-opacity:1"
       d="m 323.10596,627.80618 -32.14286,-28.57142 20.71429,5 -12.14285,-10.71429 17.85714,5 -5.71429,-14.28571 15.71429,11.42857 4.28571,-14.28572 0.71429,12.85715 13.57143,-8.57143 -4.28572,12.85714 17.85715,-7.14286 -12.14286,12.14286 16.42857,-6.42857 -10,11.42857 19.28571,0 -21.42857,19.28571 z"
       id="path4409-8"
       inkscape:connector-curvature="0" />
    <path
       style="fill:#225500;stroke:#000000;stroke-width:1px;stroke-linecap:butt;stroke-linejoin:miter;stroke-opacity:1"
       d="m 384.74586,627.70464 32.14286,-28.57142 -20.71429,5 12.14285,-10.71429 -17.85714,5 5.71429,-14.28571 -15.71429,11.42857 -4.28571,-14.28572 -0.71429,12.85715 -13.57143,-8.57143 4.28572,12.85714 -17.85714,-7.14286 12.14286,12.14286 -16.42857,-6.42857 10,11.42857 -19.28571,0 21.42857,19.28571 z"
       id="path4409-6-5"
       inkscape:connector-curvature="0" />
    <path
       style="fill:#225500;stroke:#000000;stroke-width:1px;stroke-linecap:butt;stroke-linejoin:miter;stroke-opacity:1"
       d="m 541.29891,628.31127 -32.14285,-28.57142 20.71428,5 -12.14285,-10.71429 17.85714,5 -5.71429,-14.28571 15.71429,11.42857 4.28571,-14.28572 0.71429,12.85715 13.57143,-8.57143 -4.28572,12.85714 17.85715,-7.14286 -12.14286,12.14286 16.42857,-6.42857 -10,11.42857 19.28571,0 -21.42857,19.28571 z"
       id="path4409-7"
       inkscape:connector-curvature="0" />
    <path
       style="fill:#225500;stroke:#000000;stroke-width:1px;stroke-linecap:butt;stroke-linejoin:miter;stroke-opacity:1"
       d="m 602.93882,628.20973 32.14286,-28.57142 -20.71429,5 12.14285,-10.71429 -17.85714,5 5.71429,-14.28571 -15.71429,11.42857 -4.28571,-14.28572 -0.71429,12.85715 -13.57143,-8.57143 4.28572,12.85714 -17.85715,-7.14286 12.14286,12.14286 -16.42857,-6.42857 10,11.42857 -19.28571,0 21.42857,19.28571 z"
       id="path4409-6-6"
       inkscape:connector-curvature="0" />
    <path
       style="fill:#225500;stroke:#000000;stroke-width:1px;stroke-linecap:butt;stroke-linejoin:miter;stroke-opacity:1"
       d="m 454.09382,627.75541 -32.14286,-28.57142 20.71429,5 -12.14285,-10.71429 17.85714,5 -5.71429,-14.28571 15.71429,11.42858 4.28571,-14.28572 0.71429,12.85715 13.57143,-8.57143 -4.28572,12.85714 17.85715,-7.14286 -12.14286,12.14286 16.42857,-6.42857 -10,11.42857 19.28571,0 -21.42857,19.28571 z"
       id="path4409-6-6-9"
       inkscape:connector-curvature="0" />
    <path
       style="fill:#225500;stroke:#000000;stroke-width:1px;stroke-linecap:butt;stroke-linejoin:miter;stroke-opacity:1"
       d="m 252.24278,627.7554 32.14286,-28.57142 -20.71429,5 12.14285,-10.71429 -17.85714,5 5.71429,-14.28571 -15.71429,11.42858 -4.28571,-14.28572 -0.71429,12.85715 -13.57143,-8.57143 4.28572,12.85714 -17.85715,-7.14286 12.14286,12.14286 -16.42857,-6.42857 10,11.42857 -19.28571,0 21.42857,19.28571 z"
       id="path4409-6-6-2"
       inkscape:connector-curvature="0" />
  </g>
</svg>
